HIERARCHY
ROOT Hips
{
	OFFSET 0.000000 97.167313 0.000000
	CHANNELS 6 Xposition Yposition Zposition Xrotation Yrotation Zrotation
	JOINT Spine
	{
		OFFSET 0.000000 13.784798 0.064400
		CHANNELS 3 Xrotation Yrotation Zrotation
		JOINT Spine1
		{
			OFFSET 0.000000 12.037903 0.404700
			CHANNELS 3 Xrotation Yrotation Zrotation
			JOINT Spine2
			{
				OFFSET 0.000000 17.795601 0.420200
				CHANNELS 3 Xrotation Yrotation Zrotation
				JOINT Neck
				{
					OFFSET 0.000000 39.131302 11.954600
					CHANNELS 3 Xrotation Yrotation Zrotation
					JOINT Head
					{
						OFFSET 0.000000 14.456192 15.627699
						CHANNELS 3 Xrotation Yrotation Zrotation
						JOINT HeadTop_End
						{
							OFFSET 0.000000 15.703506 7.603401
							CHANNELS 3 Xrotation Yrotation Zrotation
							End Site
							{
								OFFSET 0.000000 17.447403 0.000000
							}
						}
					}
				}
				JOINT LeftShoulder
				{
					OFFSET 17.399500 24.608795 1.168800
					CHANNELS 3 Xrotation Yrotation Zrotation
					JOINT LeftArm
					{
						OFFSET 18.980635 5.765305 1.818600
						CHANNELS 3 Xrotation Yrotation Zrotation
						JOINT LeftForeArm
						{
							OFFSET 49.290169 0.000000 0.000000
							CHANNELS 3 Xrotation Yrotation Zrotation
							JOINT LeftHand
							{
								OFFSET 31.562012 0.000000 0.000000
								CHANNELS 3 Xrotation Yrotation Zrotation
								JOINT LeftHandThumb1
								{
									OFFSET 6.133995 -4.388519 7.076070
									CHANNELS 3 Xrotation Yrotation Zrotation
									JOINT LeftHandThumb2
									{
										OFFSET 6.037666 -3.485840 3.485847
										CHANNELS 3 Xrotation Yrotation Zrotation
										JOINT LeftHandThumb3
										{
											OFFSET 6.496506 -3.750763 3.750761
											CHANNELS 3 Xrotation Yrotation Zrotation
											JOINT LeftHandThumb4
											{
												OFFSET 5.616882 -3.242905 3.242910
												CHANNELS 3 Xrotation Yrotation Zrotation
												End Site
												{
													OFFSET -1.254608 7.132141 0.375429
												}
											}
										}
									}
								}
								JOINT LeftHandPinky1
								{
									OFFSET 18.920792 -0.453171 -11.426712
									CHANNELS 3 Xrotation Yrotation Zrotation
									JOINT LeftHandPinky2
									{
										OFFSET 4.919586 0.000000 0.000000
										CHANNELS 3 Xrotation Yrotation Zrotation
										JOINT LeftHandPinky3
										{
											OFFSET 5.233047 0.000000 0.000000
											CHANNELS 3 Xrotation Yrotation Zrotation
											JOINT LeftHandPinky4
											{
												OFFSET 5.571716 0.000000 0.000000
												CHANNELS 3 Xrotation Yrotation Zrotation
												End Site
												{
													OFFSET -3.459808 4.342407 -0.466164
												}
											}
										}
									}
								}
								JOINT LeftHandRing1
								{
									OFFSET 22.726120 -0.094986 -6.500475
									CHANNELS 3 Xrotation Yrotation Zrotation
									JOINT LeftHandRing2
									{
										OFFSET 6.408615 0.000000 0.000000
										CHANNELS 3 Xrotation Yrotation Zrotation
										JOINT LeftHandRing3
										{
											OFFSET 6.150223 0.000000 0.000000
											CHANNELS 3 Xrotation Yrotation Zrotation
											JOINT LeftHandRing4
											{
												OFFSET 6.145386 0.000000 0.000000
												CHANNELS 3 Xrotation Yrotation Zrotation
												End Site
												{
													OFFSET -3.671402 4.923981 -0.202372
												}
											}
										}
									}
								}
								JOINT LeftHandMiddle1
								{
									OFFSET 23.373947 0.000000 0.000001
									CHANNELS 3 Xrotation Yrotation Zrotation
									JOINT LeftHandMiddle2
									{
										OFFSET 6.996567 0.000000 0.000000
										CHANNELS 3 Xrotation Yrotation Zrotation
										JOINT LeftHandMiddle3
										{
											OFFSET 7.015945 0.000000 0.000000
											CHANNELS 3 Xrotation Yrotation Zrotation
											JOINT LeftHandMiddle4
											{
												OFFSET 7.721573 0.000000 0.000000
												CHANNELS 3 Xrotation Yrotation Zrotation
												End Site
												{
													OFFSET -4.651108 6.158463 0.251582
												}
											}
										}
									}
								}
								JOINT LeftHandIndex1
								{
									OFFSET 21.310577 -0.490082 6.209344
									CHANNELS 3 Xrotation Yrotation Zrotation
									JOINT LeftHandIndex2
									{
										OFFSET 7.536453 0.000000 0.000000
										CHANNELS 3 Xrotation Yrotation Zrotation
										JOINT LeftHandIndex3
										{
											OFFSET 7.512344 0.000000 0.000000
											CHANNELS 3 Xrotation Yrotation Zrotation
											JOINT LeftHandIndex4
											{
												OFFSET 10.212402 0.000000 0.000001
												CHANNELS 3 Xrotation Yrotation Zrotation
												End Site
												{
													OFFSET -5.180801 8.690506 1.388433
												}
											}
										}
									}
								}
							}
						}
					}
				}
				JOINT RightShoulder
				{
					OFFSET -17.399500 24.608795 1.168800
					CHANNELS 3 Xrotation Yrotation Zrotation
					JOINT RightArm
					{
						OFFSET -18.980635 5.765305 1.818600
						CHANNELS 3 Xrotation Yrotation Zrotation
						JOINT RightForeArm
						{
							OFFSET -49.290169 0.000000 0.000000
							CHANNELS 3 Xrotation Yrotation Zrotation
							JOINT RightHand
							{
								OFFSET -31.562012 0.000000 0.000000
								CHANNELS 3 Xrotation Yrotation Zrotation
								JOINT RightHandThumb1
								{
									OFFSET -6.133995 -4.388519 7.076070
									CHANNELS 3 Xrotation Yrotation Zrotation
									JOINT RightHandThumb2
									{
										OFFSET -6.037666 -3.485840 3.485847
										CHANNELS 3 Xrotation Yrotation Zrotation
										JOINT RightHandThumb3
										{
											OFFSET -6.496506 -3.750763 3.750761
											CHANNELS 3 Xrotation Yrotation Zrotation
											JOINT RightHandThumb4
											{
												OFFSET -5.616882 -3.242905 3.242910
												CHANNELS 3 Xrotation Yrotation Zrotation
												End Site
												{
													OFFSET 1.254608 7.132141 0.375429
												}
											}
										}
									}
								}
								JOINT RightHandIndex1
								{
									OFFSET -21.310577 -0.490082 6.209344
									CHANNELS 3 Xrotation Yrotation Zrotation
									JOINT RightHandIndex2
									{
										OFFSET -7.536453 0.000000 0.000000
										CHANNELS 3 Xrotation Yrotation Zrotation
										JOINT RightHandIndex3
										{
											OFFSET -7.512344 0.000000 0.000000
											CHANNELS 3 Xrotation Yrotation Zrotation
											JOINT RightHandIndex4
											{
												OFFSET -10.212402 0.000000 0.000001
												CHANNELS 3 Xrotation Yrotation Zrotation
												End Site
												{
													OFFSET 5.180801 8.690506 1.388433
												}
											}
										}
									}
								}
								JOINT RightHandMiddle1
								{
									OFFSET -23.373947 0.000000 0.000001
									CHANNELS 3 Xrotation Yrotation Zrotation
									JOINT RightHandMiddle2
									{
										OFFSET -6.996567 0.000000 0.000000
										CHANNELS 3 Xrotation Yrotation Zrotation
										JOINT RightHandMiddle3
										{
											OFFSET -7.015945 0.000000 0.000000
											CHANNELS 3 Xrotation Yrotation Zrotation
											JOINT RightHandMiddle4
											{
												OFFSET -7.721573 0.000000 0.000000
												CHANNELS 3 Xrotation Yrotation Zrotation
												End Site
												{
													OFFSET 4.651108 6.158463 0.251582
												}
											}
										}
									}
								}
								JOINT RightHandRing1
								{
									OFFSET -22.726120 -0.094986 -6.500475
									CHANNELS 3 Xrotation Yrotation Zrotation
									JOINT RightHandRing2
									{
										OFFSET -6.408615 0.000000 0.000000
										CHANNELS 3 Xrotation Yrotation Zrotation
										JOINT RightHandRing3
										{
											OFFSET -6.150223 0.000000 0.000000
											CHANNELS 3 Xrotation Yrotation Zrotation
											JOINT RightHandRing4
											{
												OFFSET -6.145386 0.000000 0.000000
												CHANNELS 3 Xrotation Yrotation Zrotation
												End Site
												{
													OFFSET 3.671402 4.923981 -0.202372
												}
											}
										}
									}
								}
								JOINT RightHandPinky1
								{
									OFFSET -18.920792 -0.453171 -11.426712
									CHANNELS 3 Xrotation Yrotation Zrotation
									JOINT RightHandPinky2
									{
										OFFSET -4.919586 0.000000 0.000000
										CHANNELS 3 Xrotation Yrotation Zrotation
										JOINT RightHandPinky3
										{
											OFFSET -5.233047 0.000000 0.000000
											CHANNELS 3 Xrotation Yrotation Zrotation
											JOINT RightHandPinky4
											{
												OFFSET -5.571716 0.000000 0.000000
												CHANNELS 3 Xrotation Yrotation Zrotation
												End Site
												{
													OFFSET 3.459808 4.342407 -0.466164
												}
											}
										}
									}
								}
							}
						}
					}
				}
			}
		}
	}
	JOINT LeftUpLeg
	{
		OFFSET 19.899099 -7.885101 -3.429500
		CHANNELS 3 Xrotation Yrotation Zrotation
		JOINT LeftLeg
		{
			OFFSET 1.745560 -36.997807 10.304700
			CHANNELS 3 Xrotation Yrotation Zrotation
			JOINT LeftFoot
			{
				OFFSET -1.745558 -29.803308 -13.615400
				CHANNELS 3 Xrotation Yrotation Zrotation
				JOINT LeftToeBase
				{
					OFFSET 1.181900 -18.539904 15.226099
					CHANNELS 3 Xrotation Yrotation Zrotation
					JOINT LeftToe_End
					{
						OFFSET -0.863701 1.402801 16.534700
						CHANNELS 3 Xrotation Yrotation Zrotation
						End Site
						{
							OFFSET 0.000000 16.616566 0.000000
						}
					}
				}
			}
		}
	}
	JOINT RightUpLeg
	{
		OFFSET -19.899099 -7.885101 -3.429500
		CHANNELS 3 Xrotation Yrotation Zrotation
		JOINT RightLeg
		{
			OFFSET -1.745560 -36.997807 10.304700
			CHANNELS 3 Xrotation Yrotation Zrotation
			JOINT RightFoot
			{
				OFFSET 1.745558 -29.803308 -13.615400
				CHANNELS 3 Xrotation Yrotation Zrotation
				JOINT RightToeBase
				{
					OFFSET -1.181900 -18.539904 15.226099
					CHANNELS 3 Xrotation Yrotation Zrotation
					JOINT RightToe_End
					{
						OFFSET 0.863701 1.402801 16.534700
						CHANNELS 3 Xrotation Yrotation Zrotation
						End Site
						{
							OFFSET 0.000000 16.616566 0.000000
						}
					}
				}
			}
		}
	}
}
MOTION
Frames: 6
Frame Time: 0.033333
-130.222839 53.184212 45.701485 74.972733 44.736452 -85.118350 4.378875 -8.467694 13.436738 7.841428 -11.019872 11.796652 7.872388 -10.981588 11.812981 -5.477393 1.048373 -9.436508 2.014075 -10.675097 8.346297 -0.000000 -0.000001 -0.000001 2.058424 -17.081555 2.154205 -90.733954 -62.731579 -50.906903 0.000008 -43.239472 0.000007 4.151647 -33.964437 23.976927 -28.454968 8.390747 4.777156 6.956336 19.084833 2.238665 -7.830704 -3.114776 12.770876 0.000001 0.000002 -0.000001 -2.164085 16.951848 -10.854578 0.270346 1.760774 -17.456237 0.243774 1.673964 -16.569737 -0.000006 -0.000001 -0.000004 1.791025 12.751524 -9.454598 0.290522 1.823649 -18.101321 0.180347 1.443816 -14.238440 0.000005 -0.000002 0.000005 0.617071 8.625039 -4.979172 0.288231 1.816662 -18.029551 0.199044 1.515595 -14.962714 -0.000001 -0.000002 0.000004 -0.092582 8.596801 1.750082 0.125193 1.205824 -11.853008 0.037282 0.660634 -6.460732 -0.000007 0.000003 0.000001 17.543020 -35.738395 55.908934 -34.516610 19.869072 17.043835 0.000005 0.000000 0.000004 -83.095282 12.336557 -31.544184 -23.105031 -3.081073 9.911603 7.837337 -24.671372 -3.772590 -6.386987 -1.055652 -14.733802 0.000001 -0.000001 -0.000000 0.153708 -2.895707 7.550903 0.006747 -0.251320 3.086617 0.008660 -0.284040 3.489145 -0.000002 -0.000001 0.000001 0.203442 -3.640365 8.817676 0.055803 -0.719612 8.869521 0.081676 -0.869365 10.735531 -0.000001 0.000000 -0.000008 0.834897 -6.699783 11.086072 0.053514 -0.704834 8.685855 0.084516 -0.884226 10.921335 0.000001 -0.000000 0.000002 -0.408451 -9.283567 11.818524 0.075587 -0.836489 10.324983 0.067358 -0.790076 9.746275 0.000001 -0.000002 0.000002 -7.757785 27.967991 31.627273 46.874133 -6.252203 -15.772526 -46.552192 31.535622 -18.486460 -26.744113 -0.000010 -0.000003 0.000001 0.000000 -0.000001 -114.971331 -8.017081 -18.209228 29.302621 -2.619756 0.063248 45.732723 -12.648732 7.959476 -2.154673 -0.000006 0.000003 0.000000 0.000001 -0.000000 
-134.392029 51.949478 45.952682 80.913624 46.920336 -93.670696 4.636155 -8.869283 12.067900 8.459830 -10.955973 10.824678 8.509321 -10.911842 10.832514 -4.644036 0.667699 -10.202441 3.986530 -13.852729 11.402576 0.000003 0.000001 0.000003 2.088316 -18.566891 1.435205 -82.280352 -61.646016 -41.995548 0.000006 -37.014455 0.000008 4.507461 -29.292861 23.061570 -31.194492 6.740282 12.711544 6.702433 17.667415 1.879230 -7.841191 -3.280733 12.457166 -0.000000 -0.000000 0.000001 -5.569389 19.786394 -1.202810 0.158900 1.356585 -13.361155 0.134498 1.249408 -12.288134 -0.000001 0.000000 -0.000002 0.124050 15.177857 0.385670 0.189278 1.478584 -14.588837 0.052377 0.782466 -7.658908 -0.000004 -0.000001 0.000007 -0.714828 10.310959 5.861808 0.187465 1.471603 -14.518388 0.072883 0.922212 -9.037391 -0.000002 0.000002 0.000007 -2.053882 10.588065 13.932640 0.108777 1.124871 -11.046518 0.003579 0.205004 -2.000993 0.000001 0.000001 -0.000001 16.402978 -36.725914 52.030786 -41.380202 21.730296 18.023165 0.000005 0.000001 0.000005 -81.937456 10.773901 -27.636163 -21.566568 -1.676680 8.613775 7.701481 -23.721305 -3.630244 -6.304053 -1.468857 -14.735646 0.000000 -0.000001 -0.000000 0.139295 -2.836208 6.825116 0.004723 -0.209876 2.577228 0.006146 -0.239174 2.937336 -0.000001 -0.000001 -0.000003 0.172771 -3.499990 7.904634 0.042051 -0.625154 7.697580 0.062240 -0.759614 9.366912 0.000000 0.000001 0.000001 0.678793 -6.246027 9.926222 0.040238 -0.611708 7.531057 0.064458 -0.772900 9.532314 -0.000000 -0.000000 -0.000005 -0.458981 -8.545613 10.596145 0.057513 -0.730447 9.004195 0.051093 -0.688766 8.486497 -0.000001 -0.000000 0.000006 -9.667059 25.788325 36.668437 48.090392 -9.501889 -17.370377 -57.320894 33.068463 -18.080192 -13.995381 -0.000005 0.000005 -0.000000 -0.000001 0.000000 -113.597589 -6.313495 -21.583118 27.328502 -1.058692 0.745406 48.657656 -10.888939 11.394988 -2.060767 0.000003 -0.000005 -0.000000 -0.000002 -0.000000 
-137.484680 51.284103 46.357986 87.527884 47.689477 -102.127939 4.870227 -8.564546 9.956248 9.089894 -10.306486 9.340861 9.127773 -10.274500 9.341137 -3.779689 -0.846634 -9.025343 6.262781 -19.211649 12.784363 -0.000002 0.000003 -0.000001 2.009744 -18.786376 0.751928 -77.555821 -61.432156 -37.304629 0.000006 -32.478608 -0.000016 4.735712 -31.955699 23.505447 -34.141510 5.060628 19.012342 6.572965 16.905804 1.705874 -8.053672 -4.475055 12.011329 -0.000000 0.000001 0.000001 -10.012344 22.735920 6.925726 0.106582 1.113645 -10.935030 0.082224 0.979114 -9.600319 0.000001 -0.000003 -0.000003 -1.980294 17.776937 8.310353 0.137666 1.263863 -12.432505 0.008339 0.312777 -3.053673 -0.000002 -0.000002 -0.000002 -2.453987 11.802942 14.581648 0.142293 1.284639 -12.640471 0.025113 0.542556 -5.302120 -0.000001 -0.000001 0.000004 -4.562577 12.036857 23.919772 0.118257 1.172382 -11.519397 0.000887 -0.102277 0.997962 -0.000003 0.000003 0.000002 13.611424 -35.668959 45.944668 -48.352914 25.278364 18.337192 0.000006 0.000013 0.000004 -77.105370 11.179392 -23.030158 -19.902317 -0.244973 7.199597 7.548751 -22.652568 -3.467133 -6.209818 -1.933656 -14.737071 -0.000001 0.000002 0.000001 0.125712 -2.780579 6.148318 0.003216 -0.173374 2.128765 0.004247 -0.199029 2.444079 -0.000000 -0.000003 0.000001 0.146237 -3.360547 7.056148 0.030708 -0.534462 6.575514 0.045849 -0.652570 8.037262 0.000001 0.000000 -0.000008 0.539840 -5.772021 8.820215 0.029357 -0.522537 6.428157 0.047512 -0.664204 8.181527 0.000000 -0.000001 -0.000005 -0.482866 -7.773933 9.419785 0.042339 -0.627200 7.722822 0.037516 -0.590583 7.269513 -0.000000 -0.000001 -0.000001 -13.954975 23.436852 42.661375 48.180349 -13.411527 -18.692204 -61.452708 33.606928 -19.740529 -6.106210 -0.000004 -0.000007 -0.000000 -0.000001 -0.000000 -112.380914 -4.499511 -25.426434 26.492156 0.366808 1.734139 49.624593 -8.979331 14.469921 -1.972904 0.000002 0.000012 -0.000000 -0.000001 0.000000 
-139.559525 50.797943 47.028366 93.795313 46.984885 -110.077234 4.980474 -7.891268 8.003633 9.396169 -9.646716 7.636815 9.419901 -9.632973 7.624569 -2.244631 -2.811625 -7.777385 9.716894 -26.596702 15.390312 -0.000000 -0.000001 -0.000003 1.490623 -18.765726 -3.018965 -53.813896 -51.428299 -12.833497 -0.000013 -24.850759 0.000007 7.741721 -33.791135 31.939372 -30.422598 18.136198 0.852302 6.514865 16.496307 1.670389 -8.400740 -6.324695 11.494145 0.000000 -0.000000 -0.000001 -1.901072 29.778757 -16.132495 0.076039 0.941787 -9.230890 0.050900 0.771331 -7.549225 0.000001 0.000002 -0.000007 4.634426 20.819726 -13.771349 0.105685 1.108903 -10.887685 0.000110 -0.034852 0.340070 0.000001 0.000002 0.000003 1.464697 14.637941 -6.132372 0.119233 1.177152 -11.566989 0.007007 0.286825 -2.799994 0.000001 -0.000000 0.000006 -0.476349 14.616463 3.158945 0.115654 1.159571 -11.391885 0.008192 -0.310008 3.026561 -0.000000 0.000001 0.000001 7.701895 -30.431542 33.110694 -54.610187 22.667871 17.798406 0.000008 0.000026 0.000006 -77.302346 9.289961 -21.477376 -18.178603 1.145539 5.725292 7.388677 -21.533351 -3.292973 -6.111923 -2.420710 -14.737588 -0.000001 -0.000001 -0.000001 0.113243 -2.729740 5.519764 0.002134 -0.140962 1.730781 0.002855 -0.162962 2.000879 -0.000001 -0.000003 -0.000002 0.123797 -3.225029 6.270299 0.021575 -0.448408 5.513155 0.032508 -0.549816 6.765283 -0.000000 0.000001 -0.000004 0.420812 -5.295657 7.776733 0.020583 -0.438078 5.385807 0.033697 -0.559787 6.888448 0.000000 0.000001 -0.000003 -0.478864 -7.000017 8.301561 0.029997 -0.528210 6.498237 0.026505 -0.496771 6.109919 0.000001 -0.000004 0.000002 -19.881002 21.021063 49.082255 47.720356 -17.073125 -19.526114 -60.732164 33.640697 -23.271711 -1.564730 0.000008 0.000002 0.000000 0.000001 0.000000 -111.859340 -2.573064 -29.207801 27.433361 2.410901 2.922652 48.738092 -8.201695 17.813792 -1.893516 0.000003 0.000003 -0.000000 0.000002 0.000000 
-139.456528 51.179993 48.439003 99.152572 44.608741 -116.610631 4.982963 -6.790377 6.248726 9.464670 -8.752950 5.844028 9.480960 -8.746313 5.823087 0.058862 -4.051972 -8.026623 13.341924 -32.711221 17.601949 -0.000000 -0.000000 -0.000002 0.744920 -18.820614 -8.453679 -40.328138 -29.737329 4.422638 0.000010 -15.693934 0.000004 15.855424 -35.542894 44.956633 -15.561107 -4.674660 -5.381241 6.492671 16.322106 1.717303 -8.732815 -8.029929 11.071269 0.000001 -0.000001 -0.000001 -11.662969 17.299792 -8.197024 0.207153 1.545649 -15.266572 0.031622 0.608499 -5.948766 0.000000 0.000004 -0.000005 0.457467 8.185860 -3.728179 0.281165 1.794797 -17.805077 0.005433 -0.252485 2.464586 -0.000001 -0.000002 0.000005 0.087922 1.776952 3.294391 0.305686 1.869393 -18.572070 0.001491 0.132166 -1.289810 -0.000001 -0.000001 0.000006 0.814347 -3.641949 7.354314 0.134608 1.249876 -12.292764 0.015825 -0.430839 4.208119 -0.000000 0.000003 0.000003 1.697030 -20.202168 15.022675 -57.783940 15.980361 15.288456 0.000006 -0.000002 0.000006 -70.863622 2.830466 -21.899499 -16.469104 2.435405 4.254975 7.230974 -20.431795 -3.118202 -6.016420 -2.900395 -14.737108 0.000000 -0.000001 0.000001 0.102013 -2.684582 4.938667 0.001347 -0.111820 1.372859 0.001819 -0.130264 1.599213 -0.000002 -0.000003 -0.000001 0.105333 -3.096432 5.545132 0.014511 -0.367843 4.520313 0.022027 -0.452988 5.569662 0.000000 -0.000000 -0.000009 0.322716 -4.834927 6.804236 0.013826 -0.359118 4.412641 0.022871 -0.461321 5.672530 -0.000001 -0.000000 -0.000003 -0.449107 -6.255180 7.253653 0.020324 -0.435008 5.347756 0.017910 -0.408591 5.022372 0.000001 0.000002 -0.000003 -26.730394 18.030629 54.202151 45.876000 -19.308535 -19.275888 -55.428822 33.069010 -26.306568 -0.906457 0.000005 -0.000006 0.000000 -0.000001 -0.000000 -112.447604 -0.332525 -32.436073 32.142416 5.437332 4.408472 43.997691 -9.538716 20.713696 -1.825016 0.000032 -0.000014 -0.000000 0.000002 -0.000000 
-138.249268 52.240379 50.186966 103.549677 41.184781 -122.088921 4.922464 -5.545496 4.618118 9.410582 -7.814356 3.945892 9.388458 -7.810279 3.914982 2.869347 -4.645497 -9.840890 17.109595 -38.122615 20.196849 -0.000001 -0.000000 -0.000001 0.056832 -18.954388 -13.347312 -38.146176 -9.050828 13.911194 0.000001 -6.721227 -0.000004 28.696207 -34.945003 55.508712 -23.158556 -3.014188 11.037850 6.500317 16.359678 1.780993 -8.950831 -9.109588 10.819421 -0.000001 -0.000000 -0.000001 -13.967745 19.587437 7.172562 0.124057 1.200454 -11.799366 0.021132 0.497629 -4.861937 -0.000001 0.000001 -0.000004 -1.964247 12.888367 11.065326 0.171913 1.410207 -13.899922 0.011253 -0.363280 3.547323 -0.000001 0.000001 0.000003 -1.334837 5.934045 17.686765 0.203365 1.531663 -15.125107 0.000195 0.048020 -0.468644 0.000000 -0.000001 0.000004 -1.069277 4.029117 22.205913 0.125692 1.208314 -11.877889 0.021624 -0.503487 4.919424 0.000002 0.000000 -0.000001 0.121888 -5.406314 5.212117 -59.804692 15.213876 6.999581 -0.000004 0.468861 -0.000006 -63.880061 0.200880 -26.593207 -15.094276 3.433155 2.958658 7.087557 -19.454783 -2.947180 -5.903627 -3.517463 -14.763543 0.000001 -0.000000 -0.000004 0.092915 -2.660378 4.556617 0.001048 -0.098992 1.215313 0.001381 -0.113509 1.393684 -0.000000 0.000000 0.000004 0.094091 -2.999259 5.189191 0.010810 -0.317379 3.899148 0.015954 -0.385529 4.738023 -0.000000 0.000000 -0.000004 0.255261 -4.405904 6.264556 0.010616 -0.314729 3.866430 0.016935 -0.397273 4.882644 0.000002 -0.000001 -0.000005 -0.384620 -5.546969 6.605221 0.015026 -0.374162 4.598026 0.013318 -0.352342 4.329299 -0.000000 0.000001 -0.000001 -34.351951 14.285347 57.826513 43.336567 -21.006704 -18.359810 -48.137940 31.986005 -28.073756 -0.913233 -0.000002 0.000016 0.000000 0.000000 0.000000 -112.778123 1.811570 -35.580860 37.931029 7.093579 6.027191 37.415428 -11.124742 21.854360 -1.769841 0.000024 0.000006 -0.000000 0.000001 -0.000000 
